<mxfile host="65bd71144e">
    <diagram id="1btjpcoBKTG_bGhoGLtb" name="Page-1">
        <mxGraphModel dx="1687" dy="657" grid="1" gridSize="10" guides="1" tooltips="1" connect="1" arrows="1" fold="1" page="1" pageScale="1" pageWidth="850" pageHeight="1100" math="0" shadow="0">
            <root>
                <mxCell id="0"/>
                <mxCell id="1" parent="0"/>
                <mxCell id="2" value="xbotJointNames" style="shape=table;startSize=30;container=1;collapsible=0;childLayout=tableLayout;" vertex="1" parent="1">
                    <mxGeometry x="210" y="120" width="1090" height="510" as="geometry"/>
                </mxCell>
                <mxCell id="3" value="" style="shape=tableRow;horizontal=0;startSize=0;swimlaneHead=0;swimlaneBody=0;top=0;left=0;bottom=0;right=0;collapsible=0;dropTarget=0;fillColor=none;points=[[0,0.5],[1,0.5]];portConstraint=eastwest;" vertex="1" parent="2">
                    <mxGeometry y="30" width="1090" height="40" as="geometry"/>
                </mxCell>
                <mxCell id="15" value="1" style="shape=partialRectangle;html=1;whiteSpace=wrap;connectable=0;overflow=hidden;fillColor=none;top=0;left=0;bottom=0;right=0;pointerEvents=1;" vertex="1" parent="3">
                    <mxGeometry width="50" height="40" as="geometry">
                        <mxRectangle width="50" height="40" as="alternateBounds"/>
                    </mxGeometry>
                </mxCell>
                <mxCell id="4" value="hip_yaw_1" style="shape=partialRectangle;html=1;whiteSpace=wrap;connectable=0;overflow=hidden;fillColor=none;top=0;left=0;bottom=0;right=0;pointerEvents=1;" vertex="1" parent="3">
                    <mxGeometry x="50" width="90" height="40" as="geometry">
                        <mxRectangle width="90" height="40" as="alternateBounds"/>
                    </mxGeometry>
                </mxCell>
                <mxCell id="21" value="7" style="shape=partialRectangle;html=1;whiteSpace=wrap;connectable=0;overflow=hidden;fillColor=none;top=0;left=0;bottom=0;right=0;pointerEvents=1;" vertex="1" parent="3">
                    <mxGeometry x="140" width="50" height="40" as="geometry">
                        <mxRectangle width="50" height="40" as="alternateBounds"/>
                    </mxGeometry>
                </mxCell>
                <mxCell id="27" value="hip_yaw_2" style="shape=partialRectangle;html=1;whiteSpace=wrap;connectable=0;overflow=hidden;fillColor=none;top=0;left=0;bottom=0;right=0;pointerEvents=1;" vertex="1" parent="3">
                    <mxGeometry x="190" width="80" height="40" as="geometry">
                        <mxRectangle width="80" height="40" as="alternateBounds"/>
                    </mxGeometry>
                </mxCell>
                <mxCell id="33" value="13" style="shape=partialRectangle;html=1;whiteSpace=wrap;connectable=0;overflow=hidden;fillColor=none;top=0;left=0;bottom=0;right=0;pointerEvents=1;" vertex="1" parent="3">
                    <mxGeometry x="270" width="80" height="40" as="geometry">
                        <mxRectangle width="80" height="40" as="alternateBounds"/>
                    </mxGeometry>
                </mxCell>
                <mxCell id="39" value="hip_yaw_3&amp;nbsp; &amp;nbsp; &amp;nbsp;" style="shape=partialRectangle;html=1;whiteSpace=wrap;connectable=0;overflow=hidden;fillColor=none;top=0;left=0;bottom=0;right=0;pointerEvents=1;" vertex="1" parent="3">
                    <mxGeometry x="350" width="150" height="40" as="geometry">
                        <mxRectangle width="150" height="40" as="alternateBounds"/>
                    </mxGeometry>
                </mxCell>
                <mxCell id="45" value="19" style="shape=partialRectangle;html=1;whiteSpace=wrap;connectable=0;overflow=hidden;fillColor=none;top=0;left=0;bottom=0;right=0;pointerEvents=1;" vertex="1" parent="3">
                    <mxGeometry x="500" width="80" height="40" as="geometry">
                        <mxRectangle width="80" height="40" as="alternateBounds"/>
                    </mxGeometry>
                </mxCell>
                <mxCell id="51" value="hip_yaw_4" style="shape=partialRectangle;html=1;whiteSpace=wrap;connectable=0;overflow=hidden;fillColor=none;top=0;left=0;bottom=0;right=0;pointerEvents=1;" vertex="1" parent="3">
                    <mxGeometry x="580" width="150" height="40" as="geometry">
                        <mxRectangle width="150" height="40" as="alternateBounds"/>
                    </mxGeometry>
                </mxCell>
                <mxCell id="58" value="25" style="shape=partialRectangle;html=1;whiteSpace=wrap;connectable=0;overflow=hidden;fillColor=none;top=0;left=0;bottom=0;right=0;pointerEvents=1;" vertex="1" parent="3">
                    <mxGeometry x="730" width="150" height="40" as="geometry">
                        <mxRectangle width="150" height="40" as="alternateBounds"/>
                    </mxGeometry>
                </mxCell>
                <mxCell id="64" value="torso_yaw" style="shape=partialRectangle;html=1;whiteSpace=wrap;connectable=0;overflow=hidden;fillColor=none;top=0;left=0;bottom=0;right=0;pointerEvents=1;" vertex="1" parent="3">
                    <mxGeometry x="880" width="210" height="40" as="geometry">
                        <mxRectangle width="210" height="40" as="alternateBounds"/>
                    </mxGeometry>
                </mxCell>
                <mxCell id="5" value="" style="shape=tableRow;horizontal=0;startSize=0;swimlaneHead=0;swimlaneBody=0;top=0;left=0;bottom=0;right=0;collapsible=0;dropTarget=0;fillColor=none;points=[[0,0.5],[1,0.5]];portConstraint=eastwest;" vertex="1" parent="2">
                    <mxGeometry y="70" width="1090" height="40" as="geometry"/>
                </mxCell>
                <mxCell id="16" value="2" style="shape=partialRectangle;html=1;whiteSpace=wrap;connectable=0;overflow=hidden;fillColor=none;top=0;left=0;bottom=0;right=0;pointerEvents=1;" vertex="1" parent="5">
                    <mxGeometry width="50" height="40" as="geometry">
                        <mxRectangle width="50" height="40" as="alternateBounds"/>
                    </mxGeometry>
                </mxCell>
                <mxCell id="6" value="hip_pitch_1" style="shape=partialRectangle;html=1;whiteSpace=wrap;connectable=0;overflow=hidden;fillColor=none;top=0;left=0;bottom=0;right=0;pointerEvents=1;" vertex="1" parent="5">
                    <mxGeometry x="50" width="90" height="40" as="geometry">
                        <mxRectangle width="90" height="40" as="alternateBounds"/>
                    </mxGeometry>
                </mxCell>
                <mxCell id="22" value="8" style="shape=partialRectangle;html=1;whiteSpace=wrap;connectable=0;overflow=hidden;fillColor=none;top=0;left=0;bottom=0;right=0;pointerEvents=1;" vertex="1" parent="5">
                    <mxGeometry x="140" width="50" height="40" as="geometry">
                        <mxRectangle width="50" height="40" as="alternateBounds"/>
                    </mxGeometry>
                </mxCell>
                <mxCell id="28" value="hip_pitch_2" style="shape=partialRectangle;html=1;whiteSpace=wrap;connectable=0;overflow=hidden;fillColor=none;top=0;left=0;bottom=0;right=0;pointerEvents=1;" vertex="1" parent="5">
                    <mxGeometry x="190" width="80" height="40" as="geometry">
                        <mxRectangle width="80" height="40" as="alternateBounds"/>
                    </mxGeometry>
                </mxCell>
                <mxCell id="34" value="14" style="shape=partialRectangle;html=1;whiteSpace=wrap;connectable=0;overflow=hidden;fillColor=none;top=0;left=0;bottom=0;right=0;pointerEvents=1;" vertex="1" parent="5">
                    <mxGeometry x="270" width="80" height="40" as="geometry">
                        <mxRectangle width="80" height="40" as="alternateBounds"/>
                    </mxGeometry>
                </mxCell>
                <mxCell id="40" value="hip_pitch_3" style="shape=partialRectangle;html=1;whiteSpace=wrap;connectable=0;overflow=hidden;fillColor=none;top=0;left=0;bottom=0;right=0;pointerEvents=1;" vertex="1" parent="5">
                    <mxGeometry x="350" width="150" height="40" as="geometry">
                        <mxRectangle width="150" height="40" as="alternateBounds"/>
                    </mxGeometry>
                </mxCell>
                <mxCell id="46" value="20" style="shape=partialRectangle;html=1;whiteSpace=wrap;connectable=0;overflow=hidden;fillColor=none;top=0;left=0;bottom=0;right=0;pointerEvents=1;" vertex="1" parent="5">
                    <mxGeometry x="500" width="80" height="40" as="geometry">
                        <mxRectangle width="80" height="40" as="alternateBounds"/>
                    </mxGeometry>
                </mxCell>
                <mxCell id="52" value="hip_pitch_4" style="shape=partialRectangle;html=1;whiteSpace=wrap;connectable=0;overflow=hidden;fillColor=none;top=0;left=0;bottom=0;right=0;pointerEvents=1;" vertex="1" parent="5">
                    <mxGeometry x="580" width="150" height="40" as="geometry">
                        <mxRectangle width="150" height="40" as="alternateBounds"/>
                    </mxGeometry>
                </mxCell>
                <mxCell id="59" value="" style="shape=partialRectangle;html=1;whiteSpace=wrap;connectable=0;overflow=hidden;fillColor=none;top=0;left=0;bottom=0;right=0;pointerEvents=1;" vertex="1" parent="5">
                    <mxGeometry x="730" width="150" height="40" as="geometry">
                        <mxRectangle width="150" height="40" as="alternateBounds"/>
                    </mxGeometry>
                </mxCell>
                <mxCell id="65" style="shape=partialRectangle;html=1;whiteSpace=wrap;connectable=0;overflow=hidden;fillColor=none;top=0;left=0;bottom=0;right=0;pointerEvents=1;" vertex="1" parent="5">
                    <mxGeometry x="880" width="210" height="40" as="geometry">
                        <mxRectangle width="210" height="40" as="alternateBounds"/>
                    </mxGeometry>
                </mxCell>
                <mxCell id="7" value="" style="shape=tableRow;horizontal=0;startSize=0;swimlaneHead=0;swimlaneBody=0;top=0;left=0;bottom=0;right=0;collapsible=0;dropTarget=0;fillColor=none;points=[[0,0.5],[1,0.5]];portConstraint=eastwest;" vertex="1" parent="2">
                    <mxGeometry y="110" width="1090" height="40" as="geometry"/>
                </mxCell>
                <mxCell id="17" value="3" style="shape=partialRectangle;html=1;whiteSpace=wrap;connectable=0;overflow=hidden;fillColor=none;top=0;left=0;bottom=0;right=0;pointerEvents=1;" vertex="1" parent="7">
                    <mxGeometry width="50" height="40" as="geometry">
                        <mxRectangle width="50" height="40" as="alternateBounds"/>
                    </mxGeometry>
                </mxCell>
                <mxCell id="8" value="knee_pitch_1" style="shape=partialRectangle;html=1;whiteSpace=wrap;connectable=0;overflow=hidden;fillColor=none;top=0;left=0;bottom=0;right=0;pointerEvents=1;" vertex="1" parent="7">
                    <mxGeometry x="50" width="90" height="40" as="geometry">
                        <mxRectangle width="90" height="40" as="alternateBounds"/>
                    </mxGeometry>
                </mxCell>
                <mxCell id="23" value="9" style="shape=partialRectangle;html=1;whiteSpace=wrap;connectable=0;overflow=hidden;fillColor=none;top=0;left=0;bottom=0;right=0;pointerEvents=1;" vertex="1" parent="7">
                    <mxGeometry x="140" width="50" height="40" as="geometry">
                        <mxRectangle width="50" height="40" as="alternateBounds"/>
                    </mxGeometry>
                </mxCell>
                <mxCell id="29" value="knee_pitch_2" style="shape=partialRectangle;html=1;whiteSpace=wrap;connectable=0;overflow=hidden;fillColor=none;top=0;left=0;bottom=0;right=0;pointerEvents=1;" vertex="1" parent="7">
                    <mxGeometry x="190" width="80" height="40" as="geometry">
                        <mxRectangle width="80" height="40" as="alternateBounds"/>
                    </mxGeometry>
                </mxCell>
                <mxCell id="35" value="15" style="shape=partialRectangle;html=1;whiteSpace=wrap;connectable=0;overflow=hidden;fillColor=none;top=0;left=0;bottom=0;right=0;pointerEvents=1;" vertex="1" parent="7">
                    <mxGeometry x="270" width="80" height="40" as="geometry">
                        <mxRectangle width="80" height="40" as="alternateBounds"/>
                    </mxGeometry>
                </mxCell>
                <mxCell id="41" value="knee_pitch_3" style="shape=partialRectangle;html=1;whiteSpace=wrap;connectable=0;overflow=hidden;fillColor=none;top=0;left=0;bottom=0;right=0;pointerEvents=1;" vertex="1" parent="7">
                    <mxGeometry x="350" width="150" height="40" as="geometry">
                        <mxRectangle width="150" height="40" as="alternateBounds"/>
                    </mxGeometry>
                </mxCell>
                <mxCell id="47" value="21" style="shape=partialRectangle;html=1;whiteSpace=wrap;connectable=0;overflow=hidden;fillColor=none;top=0;left=0;bottom=0;right=0;pointerEvents=1;" vertex="1" parent="7">
                    <mxGeometry x="500" width="80" height="40" as="geometry">
                        <mxRectangle width="80" height="40" as="alternateBounds"/>
                    </mxGeometry>
                </mxCell>
                <mxCell id="53" value="knee_pitch_4" style="shape=partialRectangle;html=1;whiteSpace=wrap;connectable=0;overflow=hidden;fillColor=none;top=0;left=0;bottom=0;right=0;pointerEvents=1;" vertex="1" parent="7">
                    <mxGeometry x="580" width="150" height="40" as="geometry">
                        <mxRectangle width="150" height="40" as="alternateBounds"/>
                    </mxGeometry>
                </mxCell>
                <mxCell id="60" value="" style="shape=partialRectangle;html=1;whiteSpace=wrap;connectable=0;overflow=hidden;fillColor=none;top=0;left=0;bottom=0;right=0;pointerEvents=1;" vertex="1" parent="7">
                    <mxGeometry x="730" width="150" height="40" as="geometry">
                        <mxRectangle width="150" height="40" as="alternateBounds"/>
                    </mxGeometry>
                </mxCell>
                <mxCell id="66" style="shape=partialRectangle;html=1;whiteSpace=wrap;connectable=0;overflow=hidden;fillColor=none;top=0;left=0;bottom=0;right=0;pointerEvents=1;" vertex="1" parent="7">
                    <mxGeometry x="880" width="210" height="40" as="geometry">
                        <mxRectangle width="210" height="40" as="alternateBounds"/>
                    </mxGeometry>
                </mxCell>
                <mxCell id="9" value="" style="shape=tableRow;horizontal=0;startSize=0;swimlaneHead=0;swimlaneBody=0;top=0;left=0;bottom=0;right=0;collapsible=0;dropTarget=0;fillColor=none;points=[[0,0.5],[1,0.5]];portConstraint=eastwest;" vertex="1" parent="2">
                    <mxGeometry y="150" width="1090" height="40" as="geometry"/>
                </mxCell>
                <mxCell id="18" value="4" style="shape=partialRectangle;html=1;whiteSpace=wrap;connectable=0;overflow=hidden;fillColor=none;top=0;left=0;bottom=0;right=0;pointerEvents=1;" vertex="1" parent="9">
                    <mxGeometry width="50" height="40" as="geometry">
                        <mxRectangle width="50" height="40" as="alternateBounds"/>
                    </mxGeometry>
                </mxCell>
                <mxCell id="10" value="ankle_pitch_1" style="shape=partialRectangle;html=1;whiteSpace=wrap;connectable=0;overflow=hidden;fillColor=none;top=0;left=0;bottom=0;right=0;pointerEvents=1;" vertex="1" parent="9">
                    <mxGeometry x="50" width="90" height="40" as="geometry">
                        <mxRectangle width="90" height="40" as="alternateBounds"/>
                    </mxGeometry>
                </mxCell>
                <mxCell id="24" value="10" style="shape=partialRectangle;html=1;whiteSpace=wrap;connectable=0;overflow=hidden;fillColor=none;top=0;left=0;bottom=0;right=0;pointerEvents=1;" vertex="1" parent="9">
                    <mxGeometry x="140" width="50" height="40" as="geometry">
                        <mxRectangle width="50" height="40" as="alternateBounds"/>
                    </mxGeometry>
                </mxCell>
                <mxCell id="30" value="ankle_pitch_2" style="shape=partialRectangle;html=1;whiteSpace=wrap;connectable=0;overflow=hidden;fillColor=none;top=0;left=0;bottom=0;right=0;pointerEvents=1;" vertex="1" parent="9">
                    <mxGeometry x="190" width="80" height="40" as="geometry">
                        <mxRectangle width="80" height="40" as="alternateBounds"/>
                    </mxGeometry>
                </mxCell>
                <mxCell id="36" value="16" style="shape=partialRectangle;html=1;whiteSpace=wrap;connectable=0;overflow=hidden;fillColor=none;top=0;left=0;bottom=0;right=0;pointerEvents=1;" vertex="1" parent="9">
                    <mxGeometry x="270" width="80" height="40" as="geometry">
                        <mxRectangle width="80" height="40" as="alternateBounds"/>
                    </mxGeometry>
                </mxCell>
                <mxCell id="42" value="ankle_pitch_3" style="shape=partialRectangle;html=1;whiteSpace=wrap;connectable=0;overflow=hidden;fillColor=none;top=0;left=0;bottom=0;right=0;pointerEvents=1;" vertex="1" parent="9">
                    <mxGeometry x="350" width="150" height="40" as="geometry">
                        <mxRectangle width="150" height="40" as="alternateBounds"/>
                    </mxGeometry>
                </mxCell>
                <mxCell id="48" value="22" style="shape=partialRectangle;html=1;whiteSpace=wrap;connectable=0;overflow=hidden;fillColor=none;top=0;left=0;bottom=0;right=0;pointerEvents=1;" vertex="1" parent="9">
                    <mxGeometry x="500" width="80" height="40" as="geometry">
                        <mxRectangle width="80" height="40" as="alternateBounds"/>
                    </mxGeometry>
                </mxCell>
                <mxCell id="54" value="ankle_pitch_4" style="shape=partialRectangle;html=1;whiteSpace=wrap;connectable=0;overflow=hidden;fillColor=none;top=0;left=0;bottom=0;right=0;pointerEvents=1;" vertex="1" parent="9">
                    <mxGeometry x="580" width="150" height="40" as="geometry">
                        <mxRectangle width="150" height="40" as="alternateBounds"/>
                    </mxGeometry>
                </mxCell>
                <mxCell id="61" value="" style="shape=partialRectangle;html=1;whiteSpace=wrap;connectable=0;overflow=hidden;fillColor=none;top=0;left=0;bottom=0;right=0;pointerEvents=1;" vertex="1" parent="9">
                    <mxGeometry x="730" width="150" height="40" as="geometry">
                        <mxRectangle width="150" height="40" as="alternateBounds"/>
                    </mxGeometry>
                </mxCell>
                <mxCell id="67" style="shape=partialRectangle;html=1;whiteSpace=wrap;connectable=0;overflow=hidden;fillColor=none;top=0;left=0;bottom=0;right=0;pointerEvents=1;" vertex="1" parent="9">
                    <mxGeometry x="880" width="210" height="40" as="geometry">
                        <mxRectangle width="210" height="40" as="alternateBounds"/>
                    </mxGeometry>
                </mxCell>
                <mxCell id="11" value="" style="shape=tableRow;horizontal=0;startSize=0;swimlaneHead=0;swimlaneBody=0;top=0;left=0;bottom=0;right=0;collapsible=0;dropTarget=0;fillColor=none;points=[[0,0.5],[1,0.5]];portConstraint=eastwest;" vertex="1" parent="2">
                    <mxGeometry y="190" width="1090" height="40" as="geometry"/>
                </mxCell>
                <mxCell id="19" value="5" style="shape=partialRectangle;html=1;whiteSpace=wrap;connectable=0;overflow=hidden;fillColor=none;top=0;left=0;bottom=0;right=0;pointerEvents=1;" vertex="1" parent="11">
                    <mxGeometry width="50" height="40" as="geometry">
                        <mxRectangle width="50" height="40" as="alternateBounds"/>
                    </mxGeometry>
                </mxCell>
                <mxCell id="12" value="ankle_yaw_1" style="shape=partialRectangle;html=1;whiteSpace=wrap;connectable=0;overflow=hidden;fillColor=none;top=0;left=0;bottom=0;right=0;pointerEvents=1;" vertex="1" parent="11">
                    <mxGeometry x="50" width="90" height="40" as="geometry">
                        <mxRectangle width="90" height="40" as="alternateBounds"/>
                    </mxGeometry>
                </mxCell>
                <mxCell id="25" value="11" style="shape=partialRectangle;html=1;whiteSpace=wrap;connectable=0;overflow=hidden;fillColor=none;top=0;left=0;bottom=0;right=0;pointerEvents=1;" vertex="1" parent="11">
                    <mxGeometry x="140" width="50" height="40" as="geometry">
                        <mxRectangle width="50" height="40" as="alternateBounds"/>
                    </mxGeometry>
                </mxCell>
                <mxCell id="31" value="ankle_yaw_2" style="shape=partialRectangle;html=1;whiteSpace=wrap;connectable=0;overflow=hidden;fillColor=none;top=0;left=0;bottom=0;right=0;pointerEvents=1;" vertex="1" parent="11">
                    <mxGeometry x="190" width="80" height="40" as="geometry">
                        <mxRectangle width="80" height="40" as="alternateBounds"/>
                    </mxGeometry>
                </mxCell>
                <mxCell id="37" value="17" style="shape=partialRectangle;html=1;whiteSpace=wrap;connectable=0;overflow=hidden;fillColor=none;top=0;left=0;bottom=0;right=0;pointerEvents=1;" vertex="1" parent="11">
                    <mxGeometry x="270" width="80" height="40" as="geometry">
                        <mxRectangle width="80" height="40" as="alternateBounds"/>
                    </mxGeometry>
                </mxCell>
                <mxCell id="43" value="ankle_yaw_3" style="shape=partialRectangle;html=1;whiteSpace=wrap;connectable=0;overflow=hidden;fillColor=none;top=0;left=0;bottom=0;right=0;pointerEvents=1;" vertex="1" parent="11">
                    <mxGeometry x="350" width="150" height="40" as="geometry">
                        <mxRectangle width="150" height="40" as="alternateBounds"/>
                    </mxGeometry>
                </mxCell>
                <mxCell id="49" value="23" style="shape=partialRectangle;html=1;whiteSpace=wrap;connectable=0;overflow=hidden;fillColor=none;top=0;left=0;bottom=0;right=0;pointerEvents=1;" vertex="1" parent="11">
                    <mxGeometry x="500" width="80" height="40" as="geometry">
                        <mxRectangle width="80" height="40" as="alternateBounds"/>
                    </mxGeometry>
                </mxCell>
                <mxCell id="55" value="ankle_yaw_4" style="shape=partialRectangle;html=1;whiteSpace=wrap;connectable=0;overflow=hidden;fillColor=none;top=0;left=0;bottom=0;right=0;pointerEvents=1;" vertex="1" parent="11">
                    <mxGeometry x="580" width="150" height="40" as="geometry">
                        <mxRectangle width="150" height="40" as="alternateBounds"/>
                    </mxGeometry>
                </mxCell>
                <mxCell id="62" value="" style="shape=partialRectangle;html=1;whiteSpace=wrap;connectable=0;overflow=hidden;fillColor=none;top=0;left=0;bottom=0;right=0;pointerEvents=1;" vertex="1" parent="11">
                    <mxGeometry x="730" width="150" height="40" as="geometry">
                        <mxRectangle width="150" height="40" as="alternateBounds"/>
                    </mxGeometry>
                </mxCell>
                <mxCell id="68" style="shape=partialRectangle;html=1;whiteSpace=wrap;connectable=0;overflow=hidden;fillColor=none;top=0;left=0;bottom=0;right=0;pointerEvents=1;" vertex="1" parent="11">
                    <mxGeometry x="880" width="210" height="40" as="geometry">
                        <mxRectangle width="210" height="40" as="alternateBounds"/>
                    </mxGeometry>
                </mxCell>
                <mxCell id="13" value="" style="shape=tableRow;horizontal=0;startSize=0;swimlaneHead=0;swimlaneBody=0;top=0;left=0;bottom=0;right=0;collapsible=0;dropTarget=0;fillColor=none;points=[[0,0.5],[1,0.5]];portConstraint=eastwest;" vertex="1" parent="2">
                    <mxGeometry y="230" width="1090" height="40" as="geometry"/>
                </mxCell>
                <mxCell id="20" value="6" style="shape=partialRectangle;html=1;whiteSpace=wrap;connectable=0;overflow=hidden;fillColor=none;top=0;left=0;bottom=0;right=0;pointerEvents=1;" vertex="1" parent="13">
                    <mxGeometry width="50" height="40" as="geometry">
                        <mxRectangle width="50" height="40" as="alternateBounds"/>
                    </mxGeometry>
                </mxCell>
                <mxCell id="14" value="j_wheel_1" style="shape=partialRectangle;html=1;whiteSpace=wrap;connectable=0;overflow=hidden;fillColor=none;top=0;left=0;bottom=0;right=0;pointerEvents=1;" vertex="1" parent="13">
                    <mxGeometry x="50" width="90" height="40" as="geometry">
                        <mxRectangle width="90" height="40" as="alternateBounds"/>
                    </mxGeometry>
                </mxCell>
                <mxCell id="26" value="12" style="shape=partialRectangle;html=1;whiteSpace=wrap;connectable=0;overflow=hidden;fillColor=none;top=0;left=0;bottom=0;right=0;pointerEvents=1;" vertex="1" parent="13">
                    <mxGeometry x="140" width="50" height="40" as="geometry">
                        <mxRectangle width="50" height="40" as="alternateBounds"/>
                    </mxGeometry>
                </mxCell>
                <mxCell id="32" value="&amp;nbsp; &amp;nbsp; &amp;nbsp;j_wheel_2" style="shape=partialRectangle;html=1;whiteSpace=wrap;connectable=0;overflow=hidden;fillColor=none;top=0;left=0;bottom=0;right=0;pointerEvents=1;" vertex="1" parent="13">
                    <mxGeometry x="190" width="80" height="40" as="geometry">
                        <mxRectangle width="80" height="40" as="alternateBounds"/>
                    </mxGeometry>
                </mxCell>
                <mxCell id="38" value="18" style="shape=partialRectangle;html=1;whiteSpace=wrap;connectable=0;overflow=hidden;fillColor=none;top=0;left=0;bottom=0;right=0;pointerEvents=1;" vertex="1" parent="13">
                    <mxGeometry x="270" width="80" height="40" as="geometry">
                        <mxRectangle width="80" height="40" as="alternateBounds"/>
                    </mxGeometry>
                </mxCell>
                <mxCell id="44" value="j_wheel_3" style="shape=partialRectangle;html=1;whiteSpace=wrap;connectable=0;overflow=hidden;fillColor=none;top=0;left=0;bottom=0;right=0;pointerEvents=1;" vertex="1" parent="13">
                    <mxGeometry x="350" width="150" height="40" as="geometry">
                        <mxRectangle width="150" height="40" as="alternateBounds"/>
                    </mxGeometry>
                </mxCell>
                <mxCell id="50" value="24" style="shape=partialRectangle;html=1;whiteSpace=wrap;connectable=0;overflow=hidden;fillColor=none;top=0;left=0;bottom=0;right=0;pointerEvents=1;" vertex="1" parent="13">
                    <mxGeometry x="500" width="80" height="40" as="geometry">
                        <mxRectangle width="80" height="40" as="alternateBounds"/>
                    </mxGeometry>
                </mxCell>
                <mxCell id="56" value="j_wheel_4" style="shape=partialRectangle;html=1;whiteSpace=wrap;connectable=0;overflow=hidden;fillColor=none;top=0;left=0;bottom=0;right=0;pointerEvents=1;" vertex="1" parent="13">
                    <mxGeometry x="580" width="150" height="40" as="geometry">
                        <mxRectangle width="150" height="40" as="alternateBounds"/>
                    </mxGeometry>
                </mxCell>
                <mxCell id="63" value="" style="shape=partialRectangle;html=1;whiteSpace=wrap;connectable=0;overflow=hidden;fillColor=none;top=0;left=0;bottom=0;right=0;pointerEvents=1;" vertex="1" parent="13">
                    <mxGeometry x="730" width="150" height="40" as="geometry">
                        <mxRectangle width="150" height="40" as="alternateBounds"/>
                    </mxGeometry>
                </mxCell>
                <mxCell id="69" style="shape=partialRectangle;html=1;whiteSpace=wrap;connectable=0;overflow=hidden;fillColor=none;top=0;left=0;bottom=0;right=0;pointerEvents=1;" vertex="1" parent="13">
                    <mxGeometry x="880" width="210" height="40" as="geometry">
                        <mxRectangle width="210" height="40" as="alternateBounds"/>
                    </mxGeometry>
                </mxCell>
                <mxCell id="81" style="shape=tableRow;horizontal=0;startSize=0;swimlaneHead=0;swimlaneBody=0;top=0;left=0;bottom=0;right=0;collapsible=0;dropTarget=0;fillColor=none;points=[[0,0.5],[1,0.5]];portConstraint=eastwest;" vertex="1" parent="2">
                    <mxGeometry y="270" width="1090" height="40" as="geometry"/>
                </mxCell>
                <mxCell id="82" value="26" style="shape=partialRectangle;html=1;whiteSpace=wrap;connectable=0;overflow=hidden;fillColor=none;top=0;left=0;bottom=0;right=0;pointerEvents=1;" vertex="1" parent="81">
                    <mxGeometry width="50" height="40" as="geometry">
                        <mxRectangle width="50" height="40" as="alternateBounds"/>
                    </mxGeometry>
                </mxCell>
                <mxCell id="83" value="j_arm1_1" style="shape=partialRectangle;html=1;whiteSpace=wrap;connectable=0;overflow=hidden;fillColor=none;top=0;left=0;bottom=0;right=0;pointerEvents=1;" vertex="1" parent="81">
                    <mxGeometry x="50" width="90" height="40" as="geometry">
                        <mxRectangle width="90" height="40" as="alternateBounds"/>
                    </mxGeometry>
                </mxCell>
                <mxCell id="84" value="32" style="shape=partialRectangle;html=1;whiteSpace=wrap;connectable=0;overflow=hidden;fillColor=none;top=0;left=0;bottom=0;right=0;pointerEvents=1;" vertex="1" parent="81">
                    <mxGeometry x="140" width="50" height="40" as="geometry">
                        <mxRectangle width="50" height="40" as="alternateBounds"/>
                    </mxGeometry>
                </mxCell>
                <mxCell id="85" value="j_arm2_1" style="shape=partialRectangle;html=1;whiteSpace=wrap;connectable=0;overflow=hidden;fillColor=none;top=0;left=0;bottom=0;right=0;pointerEvents=1;" vertex="1" parent="81">
                    <mxGeometry x="190" width="80" height="40" as="geometry">
                        <mxRectangle width="80" height="40" as="alternateBounds"/>
                    </mxGeometry>
                </mxCell>
                <mxCell id="86" style="shape=partialRectangle;html=1;whiteSpace=wrap;connectable=0;overflow=hidden;fillColor=none;top=0;left=0;bottom=0;right=0;pointerEvents=1;" vertex="1" parent="81">
                    <mxGeometry x="270" width="80" height="40" as="geometry">
                        <mxRectangle width="80" height="40" as="alternateBounds"/>
                    </mxGeometry>
                </mxCell>
                <mxCell id="87" style="shape=partialRectangle;html=1;whiteSpace=wrap;connectable=0;overflow=hidden;fillColor=none;top=0;left=0;bottom=0;right=0;pointerEvents=1;" vertex="1" parent="81">
                    <mxGeometry x="350" width="150" height="40" as="geometry">
                        <mxRectangle width="150" height="40" as="alternateBounds"/>
                    </mxGeometry>
                </mxCell>
                <mxCell id="88" style="shape=partialRectangle;html=1;whiteSpace=wrap;connectable=0;overflow=hidden;fillColor=none;top=0;left=0;bottom=0;right=0;pointerEvents=1;" vertex="1" parent="81">
                    <mxGeometry x="500" width="80" height="40" as="geometry">
                        <mxRectangle width="80" height="40" as="alternateBounds"/>
                    </mxGeometry>
                </mxCell>
                <mxCell id="89" style="shape=partialRectangle;html=1;whiteSpace=wrap;connectable=0;overflow=hidden;fillColor=none;top=0;left=0;bottom=0;right=0;pointerEvents=1;" vertex="1" parent="81">
                    <mxGeometry x="580" width="150" height="40" as="geometry">
                        <mxRectangle width="150" height="40" as="alternateBounds"/>
                    </mxGeometry>
                </mxCell>
                <mxCell id="90" style="shape=partialRectangle;html=1;whiteSpace=wrap;connectable=0;overflow=hidden;fillColor=none;top=0;left=0;bottom=0;right=0;pointerEvents=1;" vertex="1" parent="81">
                    <mxGeometry x="730" width="150" height="40" as="geometry">
                        <mxRectangle width="150" height="40" as="alternateBounds"/>
                    </mxGeometry>
                </mxCell>
                <mxCell id="91" style="shape=partialRectangle;html=1;whiteSpace=wrap;connectable=0;overflow=hidden;fillColor=none;top=0;left=0;bottom=0;right=0;pointerEvents=1;" vertex="1" parent="81">
                    <mxGeometry x="880" width="210" height="40" as="geometry">
                        <mxRectangle width="210" height="40" as="alternateBounds"/>
                    </mxGeometry>
                </mxCell>
                <mxCell id="70" style="shape=tableRow;horizontal=0;startSize=0;swimlaneHead=0;swimlaneBody=0;top=0;left=0;bottom=0;right=0;collapsible=0;dropTarget=0;fillColor=none;points=[[0,0.5],[1,0.5]];portConstraint=eastwest;" vertex="1" parent="2">
                    <mxGeometry y="310" width="1090" height="40" as="geometry"/>
                </mxCell>
                <mxCell id="71" value="27" style="shape=partialRectangle;html=1;whiteSpace=wrap;connectable=0;overflow=hidden;fillColor=none;top=0;left=0;bottom=0;right=0;pointerEvents=1;" vertex="1" parent="70">
                    <mxGeometry width="50" height="40" as="geometry">
                        <mxRectangle width="50" height="40" as="alternateBounds"/>
                    </mxGeometry>
                </mxCell>
                <mxCell id="72" value="j_arm1_2" style="shape=partialRectangle;html=1;whiteSpace=wrap;connectable=0;overflow=hidden;fillColor=none;top=0;left=0;bottom=0;right=0;pointerEvents=1;" vertex="1" parent="70">
                    <mxGeometry x="50" width="90" height="40" as="geometry">
                        <mxRectangle width="90" height="40" as="alternateBounds"/>
                    </mxGeometry>
                </mxCell>
                <mxCell id="73" value="33" style="shape=partialRectangle;html=1;whiteSpace=wrap;connectable=0;overflow=hidden;fillColor=none;top=0;left=0;bottom=0;right=0;pointerEvents=1;" vertex="1" parent="70">
                    <mxGeometry x="140" width="50" height="40" as="geometry">
                        <mxRectangle width="50" height="40" as="alternateBounds"/>
                    </mxGeometry>
                </mxCell>
                <mxCell id="74" value="j_arm2_2" style="shape=partialRectangle;html=1;whiteSpace=wrap;connectable=0;overflow=hidden;fillColor=none;top=0;left=0;bottom=0;right=0;pointerEvents=1;" vertex="1" parent="70">
                    <mxGeometry x="190" width="80" height="40" as="geometry">
                        <mxRectangle width="80" height="40" as="alternateBounds"/>
                    </mxGeometry>
                </mxCell>
                <mxCell id="75" style="shape=partialRectangle;html=1;whiteSpace=wrap;connectable=0;overflow=hidden;fillColor=none;top=0;left=0;bottom=0;right=0;pointerEvents=1;" vertex="1" parent="70">
                    <mxGeometry x="270" width="80" height="40" as="geometry">
                        <mxRectangle width="80" height="40" as="alternateBounds"/>
                    </mxGeometry>
                </mxCell>
                <mxCell id="76" style="shape=partialRectangle;html=1;whiteSpace=wrap;connectable=0;overflow=hidden;fillColor=none;top=0;left=0;bottom=0;right=0;pointerEvents=1;" vertex="1" parent="70">
                    <mxGeometry x="350" width="150" height="40" as="geometry">
                        <mxRectangle width="150" height="40" as="alternateBounds"/>
                    </mxGeometry>
                </mxCell>
                <mxCell id="77" style="shape=partialRectangle;html=1;whiteSpace=wrap;connectable=0;overflow=hidden;fillColor=none;top=0;left=0;bottom=0;right=0;pointerEvents=1;" vertex="1" parent="70">
                    <mxGeometry x="500" width="80" height="40" as="geometry">
                        <mxRectangle width="80" height="40" as="alternateBounds"/>
                    </mxGeometry>
                </mxCell>
                <mxCell id="78" style="shape=partialRectangle;html=1;whiteSpace=wrap;connectable=0;overflow=hidden;fillColor=none;top=0;left=0;bottom=0;right=0;pointerEvents=1;" vertex="1" parent="70">
                    <mxGeometry x="580" width="150" height="40" as="geometry">
                        <mxRectangle width="150" height="40" as="alternateBounds"/>
                    </mxGeometry>
                </mxCell>
                <mxCell id="79" style="shape=partialRectangle;html=1;whiteSpace=wrap;connectable=0;overflow=hidden;fillColor=none;top=0;left=0;bottom=0;right=0;pointerEvents=1;" vertex="1" parent="70">
                    <mxGeometry x="730" width="150" height="40" as="geometry">
                        <mxRectangle width="150" height="40" as="alternateBounds"/>
                    </mxGeometry>
                </mxCell>
                <mxCell id="80" style="shape=partialRectangle;html=1;whiteSpace=wrap;connectable=0;overflow=hidden;fillColor=none;top=0;left=0;bottom=0;right=0;pointerEvents=1;" vertex="1" parent="70">
                    <mxGeometry x="880" width="210" height="40" as="geometry">
                        <mxRectangle width="210" height="40" as="alternateBounds"/>
                    </mxGeometry>
                </mxCell>
                <mxCell id="125" style="shape=tableRow;horizontal=0;startSize=0;swimlaneHead=0;swimlaneBody=0;top=0;left=0;bottom=0;right=0;collapsible=0;dropTarget=0;fillColor=none;points=[[0,0.5],[1,0.5]];portConstraint=eastwest;" vertex="1" parent="2">
                    <mxGeometry y="350" width="1090" height="40" as="geometry"/>
                </mxCell>
                <mxCell id="126" value="28" style="shape=partialRectangle;html=1;whiteSpace=wrap;connectable=0;overflow=hidden;fillColor=none;top=0;left=0;bottom=0;right=0;pointerEvents=1;" vertex="1" parent="125">
                    <mxGeometry width="50" height="40" as="geometry">
                        <mxRectangle width="50" height="40" as="alternateBounds"/>
                    </mxGeometry>
                </mxCell>
                <mxCell id="127" value="j_arm1_3" style="shape=partialRectangle;html=1;whiteSpace=wrap;connectable=0;overflow=hidden;fillColor=none;top=0;left=0;bottom=0;right=0;pointerEvents=1;" vertex="1" parent="125">
                    <mxGeometry x="50" width="90" height="40" as="geometry">
                        <mxRectangle width="90" height="40" as="alternateBounds"/>
                    </mxGeometry>
                </mxCell>
                <mxCell id="128" value="34" style="shape=partialRectangle;html=1;whiteSpace=wrap;connectable=0;overflow=hidden;fillColor=none;top=0;left=0;bottom=0;right=0;pointerEvents=1;" vertex="1" parent="125">
                    <mxGeometry x="140" width="50" height="40" as="geometry">
                        <mxRectangle width="50" height="40" as="alternateBounds"/>
                    </mxGeometry>
                </mxCell>
                <mxCell id="129" value="j_arm2_3" style="shape=partialRectangle;html=1;whiteSpace=wrap;connectable=0;overflow=hidden;fillColor=none;top=0;left=0;bottom=0;right=0;pointerEvents=1;" vertex="1" parent="125">
                    <mxGeometry x="190" width="80" height="40" as="geometry">
                        <mxRectangle width="80" height="40" as="alternateBounds"/>
                    </mxGeometry>
                </mxCell>
                <mxCell id="130" style="shape=partialRectangle;html=1;whiteSpace=wrap;connectable=0;overflow=hidden;fillColor=none;top=0;left=0;bottom=0;right=0;pointerEvents=1;" vertex="1" parent="125">
                    <mxGeometry x="270" width="80" height="40" as="geometry">
                        <mxRectangle width="80" height="40" as="alternateBounds"/>
                    </mxGeometry>
                </mxCell>
                <mxCell id="131" style="shape=partialRectangle;html=1;whiteSpace=wrap;connectable=0;overflow=hidden;fillColor=none;top=0;left=0;bottom=0;right=0;pointerEvents=1;" vertex="1" parent="125">
                    <mxGeometry x="350" width="150" height="40" as="geometry">
                        <mxRectangle width="150" height="40" as="alternateBounds"/>
                    </mxGeometry>
                </mxCell>
                <mxCell id="132" style="shape=partialRectangle;html=1;whiteSpace=wrap;connectable=0;overflow=hidden;fillColor=none;top=0;left=0;bottom=0;right=0;pointerEvents=1;" vertex="1" parent="125">
                    <mxGeometry x="500" width="80" height="40" as="geometry">
                        <mxRectangle width="80" height="40" as="alternateBounds"/>
                    </mxGeometry>
                </mxCell>
                <mxCell id="133" style="shape=partialRectangle;html=1;whiteSpace=wrap;connectable=0;overflow=hidden;fillColor=none;top=0;left=0;bottom=0;right=0;pointerEvents=1;" vertex="1" parent="125">
                    <mxGeometry x="580" width="150" height="40" as="geometry">
                        <mxRectangle width="150" height="40" as="alternateBounds"/>
                    </mxGeometry>
                </mxCell>
                <mxCell id="134" style="shape=partialRectangle;html=1;whiteSpace=wrap;connectable=0;overflow=hidden;fillColor=none;top=0;left=0;bottom=0;right=0;pointerEvents=1;" vertex="1" parent="125">
                    <mxGeometry x="730" width="150" height="40" as="geometry">
                        <mxRectangle width="150" height="40" as="alternateBounds"/>
                    </mxGeometry>
                </mxCell>
                <mxCell id="135" style="shape=partialRectangle;html=1;whiteSpace=wrap;connectable=0;overflow=hidden;fillColor=none;top=0;left=0;bottom=0;right=0;pointerEvents=1;" vertex="1" parent="125">
                    <mxGeometry x="880" width="210" height="40" as="geometry">
                        <mxRectangle width="210" height="40" as="alternateBounds"/>
                    </mxGeometry>
                </mxCell>
                <mxCell id="114" style="shape=tableRow;horizontal=0;startSize=0;swimlaneHead=0;swimlaneBody=0;top=0;left=0;bottom=0;right=0;collapsible=0;dropTarget=0;fillColor=none;points=[[0,0.5],[1,0.5]];portConstraint=eastwest;" vertex="1" parent="2">
                    <mxGeometry y="390" width="1090" height="40" as="geometry"/>
                </mxCell>
                <mxCell id="115" value="29" style="shape=partialRectangle;html=1;whiteSpace=wrap;connectable=0;overflow=hidden;fillColor=none;top=0;left=0;bottom=0;right=0;pointerEvents=1;" vertex="1" parent="114">
                    <mxGeometry width="50" height="40" as="geometry">
                        <mxRectangle width="50" height="40" as="alternateBounds"/>
                    </mxGeometry>
                </mxCell>
                <mxCell id="116" value="j_arm1_4" style="shape=partialRectangle;html=1;whiteSpace=wrap;connectable=0;overflow=hidden;fillColor=none;top=0;left=0;bottom=0;right=0;pointerEvents=1;" vertex="1" parent="114">
                    <mxGeometry x="50" width="90" height="40" as="geometry">
                        <mxRectangle width="90" height="40" as="alternateBounds"/>
                    </mxGeometry>
                </mxCell>
                <mxCell id="117" value="35" style="shape=partialRectangle;html=1;whiteSpace=wrap;connectable=0;overflow=hidden;fillColor=none;top=0;left=0;bottom=0;right=0;pointerEvents=1;" vertex="1" parent="114">
                    <mxGeometry x="140" width="50" height="40" as="geometry">
                        <mxRectangle width="50" height="40" as="alternateBounds"/>
                    </mxGeometry>
                </mxCell>
                <mxCell id="118" value="j_arm2_4" style="shape=partialRectangle;html=1;whiteSpace=wrap;connectable=0;overflow=hidden;fillColor=none;top=0;left=0;bottom=0;right=0;pointerEvents=1;" vertex="1" parent="114">
                    <mxGeometry x="190" width="80" height="40" as="geometry">
                        <mxRectangle width="80" height="40" as="alternateBounds"/>
                    </mxGeometry>
                </mxCell>
                <mxCell id="119" style="shape=partialRectangle;html=1;whiteSpace=wrap;connectable=0;overflow=hidden;fillColor=none;top=0;left=0;bottom=0;right=0;pointerEvents=1;" vertex="1" parent="114">
                    <mxGeometry x="270" width="80" height="40" as="geometry">
                        <mxRectangle width="80" height="40" as="alternateBounds"/>
                    </mxGeometry>
                </mxCell>
                <mxCell id="120" style="shape=partialRectangle;html=1;whiteSpace=wrap;connectable=0;overflow=hidden;fillColor=none;top=0;left=0;bottom=0;right=0;pointerEvents=1;" vertex="1" parent="114">
                    <mxGeometry x="350" width="150" height="40" as="geometry">
                        <mxRectangle width="150" height="40" as="alternateBounds"/>
                    </mxGeometry>
                </mxCell>
                <mxCell id="121" style="shape=partialRectangle;html=1;whiteSpace=wrap;connectable=0;overflow=hidden;fillColor=none;top=0;left=0;bottom=0;right=0;pointerEvents=1;" vertex="1" parent="114">
                    <mxGeometry x="500" width="80" height="40" as="geometry">
                        <mxRectangle width="80" height="40" as="alternateBounds"/>
                    </mxGeometry>
                </mxCell>
                <mxCell id="122" style="shape=partialRectangle;html=1;whiteSpace=wrap;connectable=0;overflow=hidden;fillColor=none;top=0;left=0;bottom=0;right=0;pointerEvents=1;" vertex="1" parent="114">
                    <mxGeometry x="580" width="150" height="40" as="geometry">
                        <mxRectangle width="150" height="40" as="alternateBounds"/>
                    </mxGeometry>
                </mxCell>
                <mxCell id="123" style="shape=partialRectangle;html=1;whiteSpace=wrap;connectable=0;overflow=hidden;fillColor=none;top=0;left=0;bottom=0;right=0;pointerEvents=1;" vertex="1" parent="114">
                    <mxGeometry x="730" width="150" height="40" as="geometry">
                        <mxRectangle width="150" height="40" as="alternateBounds"/>
                    </mxGeometry>
                </mxCell>
                <mxCell id="124" style="shape=partialRectangle;html=1;whiteSpace=wrap;connectable=0;overflow=hidden;fillColor=none;top=0;left=0;bottom=0;right=0;pointerEvents=1;" vertex="1" parent="114">
                    <mxGeometry x="880" width="210" height="40" as="geometry">
                        <mxRectangle width="210" height="40" as="alternateBounds"/>
                    </mxGeometry>
                </mxCell>
                <mxCell id="103" style="shape=tableRow;horizontal=0;startSize=0;swimlaneHead=0;swimlaneBody=0;top=0;left=0;bottom=0;right=0;collapsible=0;dropTarget=0;fillColor=none;points=[[0,0.5],[1,0.5]];portConstraint=eastwest;" vertex="1" parent="2">
                    <mxGeometry y="430" width="1090" height="40" as="geometry"/>
                </mxCell>
                <mxCell id="104" value="30" style="shape=partialRectangle;html=1;whiteSpace=wrap;connectable=0;overflow=hidden;fillColor=none;top=0;left=0;bottom=0;right=0;pointerEvents=1;" vertex="1" parent="103">
                    <mxGeometry width="50" height="40" as="geometry">
                        <mxRectangle width="50" height="40" as="alternateBounds"/>
                    </mxGeometry>
                </mxCell>
                <mxCell id="105" value="j_arm1_5" style="shape=partialRectangle;html=1;whiteSpace=wrap;connectable=0;overflow=hidden;fillColor=none;top=0;left=0;bottom=0;right=0;pointerEvents=1;" vertex="1" parent="103">
                    <mxGeometry x="50" width="90" height="40" as="geometry">
                        <mxRectangle width="90" height="40" as="alternateBounds"/>
                    </mxGeometry>
                </mxCell>
                <mxCell id="106" value="36" style="shape=partialRectangle;html=1;whiteSpace=wrap;connectable=0;overflow=hidden;fillColor=none;top=0;left=0;bottom=0;right=0;pointerEvents=1;" vertex="1" parent="103">
                    <mxGeometry x="140" width="50" height="40" as="geometry">
                        <mxRectangle width="50" height="40" as="alternateBounds"/>
                    </mxGeometry>
                </mxCell>
                <mxCell id="107" value="j_arm2_5" style="shape=partialRectangle;html=1;whiteSpace=wrap;connectable=0;overflow=hidden;fillColor=none;top=0;left=0;bottom=0;right=0;pointerEvents=1;" vertex="1" parent="103">
                    <mxGeometry x="190" width="80" height="40" as="geometry">
                        <mxRectangle width="80" height="40" as="alternateBounds"/>
                    </mxGeometry>
                </mxCell>
                <mxCell id="108" style="shape=partialRectangle;html=1;whiteSpace=wrap;connectable=0;overflow=hidden;fillColor=none;top=0;left=0;bottom=0;right=0;pointerEvents=1;" vertex="1" parent="103">
                    <mxGeometry x="270" width="80" height="40" as="geometry">
                        <mxRectangle width="80" height="40" as="alternateBounds"/>
                    </mxGeometry>
                </mxCell>
                <mxCell id="109" style="shape=partialRectangle;html=1;whiteSpace=wrap;connectable=0;overflow=hidden;fillColor=none;top=0;left=0;bottom=0;right=0;pointerEvents=1;" vertex="1" parent="103">
                    <mxGeometry x="350" width="150" height="40" as="geometry">
                        <mxRectangle width="150" height="40" as="alternateBounds"/>
                    </mxGeometry>
                </mxCell>
                <mxCell id="110" style="shape=partialRectangle;html=1;whiteSpace=wrap;connectable=0;overflow=hidden;fillColor=none;top=0;left=0;bottom=0;right=0;pointerEvents=1;" vertex="1" parent="103">
                    <mxGeometry x="500" width="80" height="40" as="geometry">
                        <mxRectangle width="80" height="40" as="alternateBounds"/>
                    </mxGeometry>
                </mxCell>
                <mxCell id="111" style="shape=partialRectangle;html=1;whiteSpace=wrap;connectable=0;overflow=hidden;fillColor=none;top=0;left=0;bottom=0;right=0;pointerEvents=1;" vertex="1" parent="103">
                    <mxGeometry x="580" width="150" height="40" as="geometry">
                        <mxRectangle width="150" height="40" as="alternateBounds"/>
                    </mxGeometry>
                </mxCell>
                <mxCell id="112" style="shape=partialRectangle;html=1;whiteSpace=wrap;connectable=0;overflow=hidden;fillColor=none;top=0;left=0;bottom=0;right=0;pointerEvents=1;" vertex="1" parent="103">
                    <mxGeometry x="730" width="150" height="40" as="geometry">
                        <mxRectangle width="150" height="40" as="alternateBounds"/>
                    </mxGeometry>
                </mxCell>
                <mxCell id="113" style="shape=partialRectangle;html=1;whiteSpace=wrap;connectable=0;overflow=hidden;fillColor=none;top=0;left=0;bottom=0;right=0;pointerEvents=1;" vertex="1" parent="103">
                    <mxGeometry x="880" width="210" height="40" as="geometry">
                        <mxRectangle width="210" height="40" as="alternateBounds"/>
                    </mxGeometry>
                </mxCell>
                <mxCell id="92" style="shape=tableRow;horizontal=0;startSize=0;swimlaneHead=0;swimlaneBody=0;top=0;left=0;bottom=0;right=0;collapsible=0;dropTarget=0;fillColor=none;points=[[0,0.5],[1,0.5]];portConstraint=eastwest;" vertex="1" parent="2">
                    <mxGeometry y="470" width="1090" height="40" as="geometry"/>
                </mxCell>
                <mxCell id="93" value="31" style="shape=partialRectangle;html=1;whiteSpace=wrap;connectable=0;overflow=hidden;fillColor=none;top=0;left=0;bottom=0;right=0;pointerEvents=1;" vertex="1" parent="92">
                    <mxGeometry width="50" height="40" as="geometry">
                        <mxRectangle width="50" height="40" as="alternateBounds"/>
                    </mxGeometry>
                </mxCell>
                <mxCell id="94" value="j_arm1_6" style="shape=partialRectangle;html=1;whiteSpace=wrap;connectable=0;overflow=hidden;fillColor=none;top=0;left=0;bottom=0;right=0;pointerEvents=1;" vertex="1" parent="92">
                    <mxGeometry x="50" width="90" height="40" as="geometry">
                        <mxRectangle width="90" height="40" as="alternateBounds"/>
                    </mxGeometry>
                </mxCell>
                <mxCell id="95" value="37" style="shape=partialRectangle;html=1;whiteSpace=wrap;connectable=0;overflow=hidden;fillColor=none;top=0;left=0;bottom=0;right=0;pointerEvents=1;" vertex="1" parent="92">
                    <mxGeometry x="140" width="50" height="40" as="geometry">
                        <mxRectangle width="50" height="40" as="alternateBounds"/>
                    </mxGeometry>
                </mxCell>
                <mxCell id="96" value="j_arm2_6" style="shape=partialRectangle;html=1;whiteSpace=wrap;connectable=0;overflow=hidden;fillColor=none;top=0;left=0;bottom=0;right=0;pointerEvents=1;" vertex="1" parent="92">
                    <mxGeometry x="190" width="80" height="40" as="geometry">
                        <mxRectangle width="80" height="40" as="alternateBounds"/>
                    </mxGeometry>
                </mxCell>
                <mxCell id="97" style="shape=partialRectangle;html=1;whiteSpace=wrap;connectable=0;overflow=hidden;fillColor=none;top=0;left=0;bottom=0;right=0;pointerEvents=1;" vertex="1" parent="92">
                    <mxGeometry x="270" width="80" height="40" as="geometry">
                        <mxRectangle width="80" height="40" as="alternateBounds"/>
                    </mxGeometry>
                </mxCell>
                <mxCell id="98" style="shape=partialRectangle;html=1;whiteSpace=wrap;connectable=0;overflow=hidden;fillColor=none;top=0;left=0;bottom=0;right=0;pointerEvents=1;" vertex="1" parent="92">
                    <mxGeometry x="350" width="150" height="40" as="geometry">
                        <mxRectangle width="150" height="40" as="alternateBounds"/>
                    </mxGeometry>
                </mxCell>
                <mxCell id="99" style="shape=partialRectangle;html=1;whiteSpace=wrap;connectable=0;overflow=hidden;fillColor=none;top=0;left=0;bottom=0;right=0;pointerEvents=1;" vertex="1" parent="92">
                    <mxGeometry x="500" width="80" height="40" as="geometry">
                        <mxRectangle width="80" height="40" as="alternateBounds"/>
                    </mxGeometry>
                </mxCell>
                <mxCell id="100" style="shape=partialRectangle;html=1;whiteSpace=wrap;connectable=0;overflow=hidden;fillColor=none;top=0;left=0;bottom=0;right=0;pointerEvents=1;" vertex="1" parent="92">
                    <mxGeometry x="580" width="150" height="40" as="geometry">
                        <mxRectangle width="150" height="40" as="alternateBounds"/>
                    </mxGeometry>
                </mxCell>
                <mxCell id="101" style="shape=partialRectangle;html=1;whiteSpace=wrap;connectable=0;overflow=hidden;fillColor=none;top=0;left=0;bottom=0;right=0;pointerEvents=1;" vertex="1" parent="92">
                    <mxGeometry x="730" width="150" height="40" as="geometry">
                        <mxRectangle width="150" height="40" as="alternateBounds"/>
                    </mxGeometry>
                </mxCell>
                <mxCell id="102" style="shape=partialRectangle;html=1;whiteSpace=wrap;connectable=0;overflow=hidden;fillColor=none;top=0;left=0;bottom=0;right=0;pointerEvents=1;" vertex="1" parent="92">
                    <mxGeometry x="880" width="210" height="40" as="geometry">
                        <mxRectangle width="210" height="40" as="alternateBounds"/>
                    </mxGeometry>
                </mxCell>
                <mxCell id="142" value="&lt;div style=&quot;color: rgb(218, 218, 218); background-color: rgb(30, 30, 30); font-family: &amp;quot;Droid Sans Mono&amp;quot;, &amp;quot;monospace&amp;quot;, monospace; font-weight: normal; font-size: 14px; line-height: 19px;&quot;&gt;&lt;div&gt;&lt;span style=&quot;color: #569cd6;&quot;&gt;lower_body&lt;/span&gt;&lt;span style=&quot;color: #b4b4b4;&quot;&gt;:&lt;/span&gt;&lt;/div&gt;&lt;div&gt;&lt;span style=&quot;color: #dadada;&quot;&gt;    &lt;/span&gt;&lt;span style=&quot;color: #569cd6;&quot;&gt;p_gains&lt;/span&gt;&lt;span style=&quot;color: #b4b4b4;&quot;&gt;:&lt;/span&gt;&lt;span style=&quot;color: #dadada;&quot;&gt; &lt;/span&gt;&lt;span style=&quot;color: #b4b4b4;&quot;&gt;[&lt;/span&gt;&lt;span style=&quot;color: #b5cea8;&quot;&gt;30&lt;/span&gt;&lt;span style=&quot;color: #b4b4b4;&quot;&gt;,&lt;/span&gt;&lt;span style=&quot;color: #dadada;&quot;&gt; &lt;/span&gt;&lt;span style=&quot;color: #b5cea8;&quot;&gt;120&lt;/span&gt;&lt;span style=&quot;color: #b4b4b4;&quot;&gt;,&lt;/span&gt;&lt;span style=&quot;color: #dadada;&quot;&gt; &lt;/span&gt;&lt;span style=&quot;color: #b5cea8;&quot;&gt;200&lt;/span&gt;&lt;span style=&quot;color: #b4b4b4;&quot;&gt;]&lt;/span&gt;&lt;/div&gt;&lt;div&gt;&lt;span style=&quot;color: #dadada;&quot;&gt;    &lt;/span&gt;&lt;span style=&quot;color: #569cd6;&quot;&gt;d_gains&lt;/span&gt;&lt;span style=&quot;color: #b4b4b4;&quot;&gt;:&lt;/span&gt;&lt;span style=&quot;color: #dadada;&quot;&gt; &lt;/span&gt;&lt;span style=&quot;color: #b4b4b4;&quot;&gt;[&lt;/span&gt;&lt;span style=&quot;color: #b5cea8;&quot;&gt;30&lt;/span&gt;&lt;span style=&quot;color: #b4b4b4;&quot;&gt;,&lt;/span&gt;&lt;span style=&quot;color: #dadada;&quot;&gt; &lt;/span&gt;&lt;span style=&quot;color: #b5cea8;&quot;&gt;60&lt;/span&gt;&lt;span style=&quot;color: #b4b4b4;&quot;&gt;,&lt;/span&gt;&lt;span style=&quot;color: #dadada;&quot;&gt; &lt;/span&gt;&lt;span style=&quot;color: #b5cea8;&quot;&gt;60&lt;/span&gt;&lt;span style=&quot;color: #b4b4b4;&quot;&gt;]&lt;/span&gt;&lt;/div&gt;&lt;br&gt;&lt;div&gt;&lt;span style=&quot;color: #569cd6;&quot;&gt;upper_body&lt;/span&gt;&lt;span style=&quot;color: #b4b4b4;&quot;&gt;:&lt;/span&gt;&lt;/div&gt;&lt;div&gt;&lt;span style=&quot;color: #dadada;&quot;&gt;    &lt;/span&gt;&lt;span style=&quot;color: #569cd6;&quot;&gt;p_gains&lt;/span&gt;&lt;span style=&quot;color: #b4b4b4;&quot;&gt;:&lt;/span&gt;&lt;span style=&quot;color: #dadada;&quot;&gt; &lt;/span&gt;&lt;span style=&quot;color: #b4b4b4;&quot;&gt;[&lt;/span&gt;&lt;span style=&quot;color: #b5cea8;&quot;&gt;30&lt;/span&gt;&lt;span style=&quot;color: #b4b4b4;&quot;&gt;,&lt;/span&gt;&lt;span style=&quot;color: #dadada;&quot;&gt; &lt;/span&gt;&lt;span style=&quot;color: #b5cea8;&quot;&gt;120&lt;/span&gt;&lt;span style=&quot;color: #b4b4b4;&quot;&gt;,&lt;/span&gt;&lt;span style=&quot;color: #dadada;&quot;&gt; &lt;/span&gt;&lt;span style=&quot;color: #b5cea8;&quot;&gt;200&lt;/span&gt;&lt;span style=&quot;color: #b4b4b4;&quot;&gt;]&lt;/span&gt;&lt;/div&gt;&lt;div&gt;&lt;span style=&quot;color: #dadada;&quot;&gt;    &lt;/span&gt;&lt;span style=&quot;color: #569cd6;&quot;&gt;d_gains&lt;/span&gt;&lt;span style=&quot;color: #b4b4b4;&quot;&gt;:&lt;/span&gt;&lt;span style=&quot;color: #dadada;&quot;&gt; &lt;/span&gt;&lt;span style=&quot;color: #b4b4b4;&quot;&gt;[&lt;/span&gt;&lt;span style=&quot;color: #b5cea8;&quot;&gt;30&lt;/span&gt;&lt;span style=&quot;color: #b4b4b4;&quot;&gt;,&lt;/span&gt;&lt;span style=&quot;color: #dadada;&quot;&gt; &lt;/span&gt;&lt;span style=&quot;color: #b5cea8;&quot;&gt;60&lt;/span&gt;&lt;span style=&quot;color: #b4b4b4;&quot;&gt;,&lt;/span&gt;&lt;span style=&quot;color: #dadada;&quot;&gt; &lt;/span&gt;&lt;span style=&quot;color: #b5cea8;&quot;&gt;60&lt;/span&gt;&lt;span style=&quot;color: #b4b4b4;&quot;&gt;]&lt;/span&gt;&lt;/div&gt;&lt;/div&gt;" style="text;whiteSpace=wrap;html=1;" vertex="1" parent="1">
                    <mxGeometry x="-70" y="690" width="230" height="160" as="geometry"/>
                </mxCell>
                <mxCell id="143" value="mrt_joint_impedance_gains" style="shape=table;startSize=30;container=1;collapsible=0;childLayout=tableLayout;shadow=1;" vertex="1" parent="1">
                    <mxGeometry x="210" y="770" width="420" height="190" as="geometry"/>
                </mxCell>
                <mxCell id="144" value="" style="shape=tableRow;horizontal=0;startSize=0;swimlaneHead=0;swimlaneBody=0;top=0;left=0;bottom=0;right=0;collapsible=0;dropTarget=0;fillColor=none;points=[[0,0.5],[1,0.5]];portConstraint=eastwest;shadow=1;" vertex="1" parent="143">
                    <mxGeometry y="30" width="420" height="40" as="geometry"/>
                </mxCell>
                <mxCell id="146" value="&lt;div style=&quot;color: rgb(218, 218, 218); background-color: rgb(30, 30, 30); font-family: &amp;quot;Droid Sans Mono&amp;quot;, &amp;quot;monospace&amp;quot;, monospace; font-size: 14px; line-height: 19px;&quot;&gt;&lt;span style=&quot;color: #ce9178;&quot;&gt;/lower_body/p_gains&lt;/span&gt;&lt;/div&gt;" style="shape=partialRectangle;html=1;whiteSpace=wrap;connectable=0;overflow=hidden;fillColor=none;top=0;left=0;bottom=0;right=0;pointerEvents=1;shadow=1;" vertex="1" parent="144">
                    <mxGeometry width="210" height="40" as="geometry">
                        <mxRectangle width="210" height="40" as="alternateBounds"/>
                    </mxGeometry>
                </mxCell>
                <mxCell id="145" value="&lt;span style=&quot;font-family: &amp;quot;Droid Sans Mono&amp;quot;, &amp;quot;monospace&amp;quot;, monospace; font-size: 14px; text-align: left; background-color: rgb(30, 30, 30); color: rgb(180, 180, 180);&quot;&gt;[&lt;/span&gt;&lt;span style=&quot;font-family: &amp;quot;Droid Sans Mono&amp;quot;, &amp;quot;monospace&amp;quot;, monospace; font-size: 14px; text-align: left; background-color: rgb(30, 30, 30); color: rgb(181, 206, 168);&quot;&gt;30&lt;/span&gt;&lt;span style=&quot;font-family: &amp;quot;Droid Sans Mono&amp;quot;, &amp;quot;monospace&amp;quot;, monospace; font-size: 14px; text-align: left; background-color: rgb(30, 30, 30); color: rgb(180, 180, 180);&quot;&gt;,&lt;/span&gt;&lt;span style=&quot;color: rgb(218, 218, 218); font-family: &amp;quot;Droid Sans Mono&amp;quot;, &amp;quot;monospace&amp;quot;, monospace; font-size: 14px; text-align: left; background-color: rgb(30, 30, 30);&quot;&gt;&amp;nbsp;&lt;/span&gt;&lt;span style=&quot;font-family: &amp;quot;Droid Sans Mono&amp;quot;, &amp;quot;monospace&amp;quot;, monospace; font-size: 14px; text-align: left; background-color: rgb(30, 30, 30); color: rgb(181, 206, 168);&quot;&gt;120&lt;/span&gt;&lt;span style=&quot;font-family: &amp;quot;Droid Sans Mono&amp;quot;, &amp;quot;monospace&amp;quot;, monospace; font-size: 14px; text-align: left; background-color: rgb(30, 30, 30); color: rgb(180, 180, 180);&quot;&gt;,&lt;/span&gt;&lt;span style=&quot;color: rgb(218, 218, 218); font-family: &amp;quot;Droid Sans Mono&amp;quot;, &amp;quot;monospace&amp;quot;, monospace; font-size: 14px; text-align: left; background-color: rgb(30, 30, 30);&quot;&gt;&amp;nbsp;&lt;/span&gt;&lt;span style=&quot;font-family: &amp;quot;Droid Sans Mono&amp;quot;, &amp;quot;monospace&amp;quot;, monospace; font-size: 14px; text-align: left; background-color: rgb(30, 30, 30); color: rgb(181, 206, 168);&quot;&gt;200&lt;/span&gt;&lt;span style=&quot;font-family: &amp;quot;Droid Sans Mono&amp;quot;, &amp;quot;monospace&amp;quot;, monospace; font-size: 14px; text-align: left; background-color: rgb(30, 30, 30); color: rgb(180, 180, 180);&quot;&gt;]&lt;/span&gt;" style="shape=partialRectangle;html=1;whiteSpace=wrap;connectable=0;overflow=hidden;fillColor=none;top=0;left=0;bottom=0;right=0;pointerEvents=1;shadow=1;" vertex="1" parent="144">
                    <mxGeometry x="210" width="210" height="40" as="geometry">
                        <mxRectangle width="210" height="40" as="alternateBounds"/>
                    </mxGeometry>
                </mxCell>
                <mxCell id="148" style="shape=tableRow;horizontal=0;startSize=0;swimlaneHead=0;swimlaneBody=0;top=0;left=0;bottom=0;right=0;collapsible=0;dropTarget=0;fillColor=none;points=[[0,0.5],[1,0.5]];portConstraint=eastwest;shadow=1;" vertex="1" parent="143">
                    <mxGeometry y="70" width="420" height="40" as="geometry"/>
                </mxCell>
                <mxCell id="149" value="&lt;div style=&quot;color: rgb(218, 218, 218); background-color: rgb(30, 30, 30); font-family: &amp;quot;Droid Sans Mono&amp;quot;, &amp;quot;monospace&amp;quot;, monospace; font-size: 14px; line-height: 19px;&quot;&gt;&lt;span style=&quot;color: #ce9178;&quot;&gt;/lower_body/d_gains&lt;/span&gt;&lt;/div&gt;" style="shape=partialRectangle;html=1;whiteSpace=wrap;connectable=0;overflow=hidden;fillColor=none;top=0;left=0;bottom=0;right=0;pointerEvents=1;shadow=1;" vertex="1" parent="148">
                    <mxGeometry width="210" height="40" as="geometry">
                        <mxRectangle width="210" height="40" as="alternateBounds"/>
                    </mxGeometry>
                </mxCell>
                <mxCell id="150" value="&lt;span style=&quot;font-family: &amp;quot;Droid Sans Mono&amp;quot;, &amp;quot;monospace&amp;quot;, monospace; font-size: 14px; text-align: left; background-color: rgb(30, 30, 30); color: rgb(180, 180, 180);&quot;&gt;[&lt;/span&gt;&lt;span style=&quot;font-family: &amp;quot;Droid Sans Mono&amp;quot;, &amp;quot;monospace&amp;quot;, monospace; font-size: 14px; text-align: left; background-color: rgb(30, 30, 30); color: rgb(181, 206, 168);&quot;&gt;30&lt;/span&gt;&lt;span style=&quot;font-family: &amp;quot;Droid Sans Mono&amp;quot;, &amp;quot;monospace&amp;quot;, monospace; font-size: 14px; text-align: left; background-color: rgb(30, 30, 30); color: rgb(180, 180, 180);&quot;&gt;,&lt;/span&gt;&lt;span style=&quot;color: rgb(218, 218, 218); font-family: &amp;quot;Droid Sans Mono&amp;quot;, &amp;quot;monospace&amp;quot;, monospace; font-size: 14px; text-align: left; background-color: rgb(30, 30, 30);&quot;&gt;&amp;nbsp;&lt;/span&gt;&lt;span style=&quot;font-family: &amp;quot;Droid Sans Mono&amp;quot;, &amp;quot;monospace&amp;quot;, monospace; font-size: 14px; text-align: left; background-color: rgb(30, 30, 30); color: rgb(181, 206, 168);&quot;&gt;60&lt;/span&gt;&lt;span style=&quot;font-family: &amp;quot;Droid Sans Mono&amp;quot;, &amp;quot;monospace&amp;quot;, monospace; font-size: 14px; text-align: left; background-color: rgb(30, 30, 30); color: rgb(180, 180, 180);&quot;&gt;,&lt;/span&gt;&lt;span style=&quot;color: rgb(218, 218, 218); font-family: &amp;quot;Droid Sans Mono&amp;quot;, &amp;quot;monospace&amp;quot;, monospace; font-size: 14px; text-align: left; background-color: rgb(30, 30, 30);&quot;&gt;&amp;nbsp;&lt;/span&gt;&lt;span style=&quot;font-family: &amp;quot;Droid Sans Mono&amp;quot;, &amp;quot;monospace&amp;quot;, monospace; font-size: 14px; text-align: left; background-color: rgb(30, 30, 30); color: rgb(181, 206, 168);&quot;&gt;60&lt;/span&gt;&lt;span style=&quot;font-family: &amp;quot;Droid Sans Mono&amp;quot;, &amp;quot;monospace&amp;quot;, monospace; font-size: 14px; text-align: left; background-color: rgb(30, 30, 30); color: rgb(180, 180, 180);&quot;&gt;]&lt;br&gt;&lt;/span&gt;" style="shape=partialRectangle;html=1;whiteSpace=wrap;connectable=0;overflow=hidden;fillColor=none;top=0;left=0;bottom=0;right=0;pointerEvents=1;shadow=1;" vertex="1" parent="148">
                    <mxGeometry x="210" width="210" height="40" as="geometry">
                        <mxRectangle width="210" height="40" as="alternateBounds"/>
                    </mxGeometry>
                </mxCell>
                <mxCell id="151" style="shape=tableRow;horizontal=0;startSize=0;swimlaneHead=0;swimlaneBody=0;top=0;left=0;bottom=0;right=0;collapsible=0;dropTarget=0;fillColor=none;points=[[0,0.5],[1,0.5]];portConstraint=eastwest;shadow=1;" vertex="1" parent="143">
                    <mxGeometry y="110" width="420" height="40" as="geometry"/>
                </mxCell>
                <mxCell id="152" value="&lt;div style=&quot;color: rgb(218, 218, 218); background-color: rgb(30, 30, 30); font-family: &amp;quot;Droid Sans Mono&amp;quot;, &amp;quot;monospace&amp;quot;, monospace; font-size: 14px; line-height: 19px;&quot;&gt;&lt;span style=&quot;color: #ce9178;&quot;&gt;/upper_body/p_gains&lt;/span&gt;&lt;/div&gt;" style="shape=partialRectangle;html=1;whiteSpace=wrap;connectable=0;overflow=hidden;fillColor=none;top=0;left=0;bottom=0;right=0;pointerEvents=1;shadow=1;" vertex="1" parent="151">
                    <mxGeometry width="210" height="40" as="geometry">
                        <mxRectangle width="210" height="40" as="alternateBounds"/>
                    </mxGeometry>
                </mxCell>
                <mxCell id="153" value="&lt;span style=&quot;font-family: &amp;quot;Droid Sans Mono&amp;quot;, &amp;quot;monospace&amp;quot;, monospace; font-size: 14px; text-align: left; background-color: rgb(30, 30, 30); color: rgb(180, 180, 180);&quot;&gt;[&lt;/span&gt;&lt;span style=&quot;font-family: &amp;quot;Droid Sans Mono&amp;quot;, &amp;quot;monospace&amp;quot;, monospace; font-size: 14px; text-align: left; background-color: rgb(30, 30, 30); color: rgb(181, 206, 168);&quot;&gt;30&lt;/span&gt;&lt;span style=&quot;font-family: &amp;quot;Droid Sans Mono&amp;quot;, &amp;quot;monospace&amp;quot;, monospace; font-size: 14px; text-align: left; background-color: rgb(30, 30, 30); color: rgb(180, 180, 180);&quot;&gt;,&lt;/span&gt;&lt;span style=&quot;color: rgb(218, 218, 218); font-family: &amp;quot;Droid Sans Mono&amp;quot;, &amp;quot;monospace&amp;quot;, monospace; font-size: 14px; text-align: left; background-color: rgb(30, 30, 30);&quot;&gt;&amp;nbsp;&lt;/span&gt;&lt;span style=&quot;font-family: &amp;quot;Droid Sans Mono&amp;quot;, &amp;quot;monospace&amp;quot;, monospace; font-size: 14px; text-align: left; background-color: rgb(30, 30, 30); color: rgb(181, 206, 168);&quot;&gt;120&lt;/span&gt;&lt;span style=&quot;font-family: &amp;quot;Droid Sans Mono&amp;quot;, &amp;quot;monospace&amp;quot;, monospace; font-size: 14px; text-align: left; background-color: rgb(30, 30, 30); color: rgb(180, 180, 180);&quot;&gt;,&lt;/span&gt;&lt;span style=&quot;color: rgb(218, 218, 218); font-family: &amp;quot;Droid Sans Mono&amp;quot;, &amp;quot;monospace&amp;quot;, monospace; font-size: 14px; text-align: left; background-color: rgb(30, 30, 30);&quot;&gt;&amp;nbsp;&lt;/span&gt;&lt;span style=&quot;font-family: &amp;quot;Droid Sans Mono&amp;quot;, &amp;quot;monospace&amp;quot;, monospace; font-size: 14px; text-align: left; background-color: rgb(30, 30, 30); color: rgb(181, 206, 168);&quot;&gt;200&lt;/span&gt;&lt;span style=&quot;font-family: &amp;quot;Droid Sans Mono&amp;quot;, &amp;quot;monospace&amp;quot;, monospace; font-size: 14px; text-align: left; background-color: rgb(30, 30, 30); color: rgb(180, 180, 180);&quot;&gt;]&lt;/span&gt;" style="shape=partialRectangle;html=1;whiteSpace=wrap;connectable=0;overflow=hidden;fillColor=none;top=0;left=0;bottom=0;right=0;pointerEvents=1;shadow=1;" vertex="1" parent="151">
                    <mxGeometry x="210" width="210" height="40" as="geometry">
                        <mxRectangle width="210" height="40" as="alternateBounds"/>
                    </mxGeometry>
                </mxCell>
                <mxCell id="154" style="shape=tableRow;horizontal=0;startSize=0;swimlaneHead=0;swimlaneBody=0;top=0;left=0;bottom=0;right=0;collapsible=0;dropTarget=0;fillColor=none;points=[[0,0.5],[1,0.5]];portConstraint=eastwest;shadow=1;" vertex="1" parent="143">
                    <mxGeometry y="150" width="420" height="40" as="geometry"/>
                </mxCell>
                <mxCell id="155" value="&lt;div style=&quot;color: rgb(218, 218, 218); background-color: rgb(30, 30, 30); font-family: &amp;quot;Droid Sans Mono&amp;quot;, &amp;quot;monospace&amp;quot;, monospace; font-size: 14px; line-height: 19px;&quot;&gt;&lt;span style=&quot;color: #ce9178;&quot;&gt;/upper_body/d_gains&lt;/span&gt;&lt;/div&gt;" style="shape=partialRectangle;html=1;whiteSpace=wrap;connectable=0;overflow=hidden;fillColor=none;top=0;left=0;bottom=0;right=0;pointerEvents=1;shadow=1;" vertex="1" parent="154">
                    <mxGeometry width="210" height="40" as="geometry">
                        <mxRectangle width="210" height="40" as="alternateBounds"/>
                    </mxGeometry>
                </mxCell>
                <mxCell id="156" value="&lt;span style=&quot;font-family: &amp;quot;Droid Sans Mono&amp;quot;, &amp;quot;monospace&amp;quot;, monospace; font-size: 14px; text-align: left; background-color: rgb(30, 30, 30); color: rgb(180, 180, 180);&quot;&gt;[&lt;/span&gt;&lt;span style=&quot;font-family: &amp;quot;Droid Sans Mono&amp;quot;, &amp;quot;monospace&amp;quot;, monospace; font-size: 14px; text-align: left; background-color: rgb(30, 30, 30); color: rgb(181, 206, 168);&quot;&gt;30&lt;/span&gt;&lt;span style=&quot;font-family: &amp;quot;Droid Sans Mono&amp;quot;, &amp;quot;monospace&amp;quot;, monospace; font-size: 14px; text-align: left; background-color: rgb(30, 30, 30); color: rgb(180, 180, 180);&quot;&gt;,&lt;/span&gt;&lt;span style=&quot;color: rgb(218, 218, 218); font-family: &amp;quot;Droid Sans Mono&amp;quot;, &amp;quot;monospace&amp;quot;, monospace; font-size: 14px; text-align: left; background-color: rgb(30, 30, 30);&quot;&gt;&amp;nbsp;&lt;/span&gt;&lt;span style=&quot;font-family: &amp;quot;Droid Sans Mono&amp;quot;, &amp;quot;monospace&amp;quot;, monospace; font-size: 14px; text-align: left; background-color: rgb(30, 30, 30); color: rgb(181, 206, 168);&quot;&gt;60&lt;/span&gt;&lt;span style=&quot;font-family: &amp;quot;Droid Sans Mono&amp;quot;, &amp;quot;monospace&amp;quot;, monospace; font-size: 14px; text-align: left; background-color: rgb(30, 30, 30); color: rgb(180, 180, 180);&quot;&gt;,&lt;/span&gt;&lt;span style=&quot;color: rgb(218, 218, 218); font-family: &amp;quot;Droid Sans Mono&amp;quot;, &amp;quot;monospace&amp;quot;, monospace; font-size: 14px; text-align: left; background-color: rgb(30, 30, 30);&quot;&gt;&amp;nbsp;&lt;/span&gt;&lt;span style=&quot;font-family: &amp;quot;Droid Sans Mono&amp;quot;, &amp;quot;monospace&amp;quot;, monospace; font-size: 14px; text-align: left; background-color: rgb(30, 30, 30); color: rgb(181, 206, 168);&quot;&gt;60&lt;/span&gt;&lt;span style=&quot;font-family: &amp;quot;Droid Sans Mono&amp;quot;, &amp;quot;monospace&amp;quot;, monospace; font-size: 14px; text-align: left; background-color: rgb(30, 30, 30); color: rgb(180, 180, 180);&quot;&gt;]&lt;/span&gt;" style="shape=partialRectangle;html=1;whiteSpace=wrap;connectable=0;overflow=hidden;fillColor=none;top=0;left=0;bottom=0;right=0;pointerEvents=1;shadow=1;" vertex="1" parent="154">
                    <mxGeometry x="210" width="210" height="40" as="geometry">
                        <mxRectangle width="210" height="40" as="alternateBounds"/>
                    </mxGeometry>
                </mxCell>
            </root>
        </mxGraphModel>
    </diagram>
</mxfile>